<?xml version="1.0" encoding="UTF-8" standalone="no"?>
<svg width="20px" height="20px" viewBox="0 0 20 20" version="1.1" xmlns="http://www.w3.org/2000/svg" xmlns:xlink="http://www.w3.org/1999/xlink" xmlns:sketch="http://www.bohemiancoding.com/sketch/ns">
    <!-- Generator: Sketch 3.3.3 (12081) - http://www.bohemiancoding.com/sketch -->
    <title>piechart</title>
    <desc>Created with Sketch.</desc>
    <defs></defs>
    <g id="Country-profile" stroke="none" stroke-width="1" fill="none" fill-rule="evenodd" sketch:type="MSPage">
        <g id="Indicators-selector-pop-3col" sketch:type="MSArtboardGroup" transform="translate(-346.000000, -68.000000)" fill="#0098CF">
            <g id="piechart" sketch:type="MSLayerGroup" transform="translate(346.000000, 68.000000)">
                <path d="M10,20 C15.5228475,20 20,15.5228475 20,10 C20,4.4771525 15.5228475,0 10,0 C4.4771525,0 0,4.4771525 0,10 C0,15.5228475 4.4771525,20 10,20 Z M10,19 C14.9705627,19 19,14.9705627 19,10 C19,5.02943725 14.9705627,1 10,1 C5.02943725,1 1,5.02943725 1,10 C1,14.9705627 5.02943725,19 10,19 Z" id="Oval-460" sketch:type="MSShapeGroup"></path>
                <path d="M10,15 C12.7614237,15 15,12.7614237 15,10 C15,7.23857625 12.7614237,5 10,5 C7.23857625,5 5,7.23857625 5,10 C5,12.7614237 7.23857625,15 10,15 Z M10,14 C12.209139,14 14,12.209139 14,10 C14,7.790861 12.209139,6 10,6 C7.790861,6 6,7.790861 6,10 C6,12.209139 7.790861,14 10,14 Z" id="Path" sketch:type="MSShapeGroup"></path>
                <path d="M10.2321831,6.00662629 L10.2321831,1 C15.0947936,1.11931443 19,5.09854099 19,9.98987737 C19,11.9076195 18.3996986,13.6851537 17.3767545,15.1448213 L17.3767545,15.1448213 L13.3263289,12.2223623 C13.7518428,11.5867354 14,10.8223478 14,10 C14,7.86879604 12.3332678,6.12687824 10.2321831,6.00662629 Z" id="Mask" sketch:type="MSShapeGroup"></path>
            </g>
        </g>
    </g>
</svg>