<?xml version="1.0" encoding="UTF-8" standalone="no"?>
<svg width="90px" height="90px" viewBox="0 0 90 90" version="1.1" xmlns="http://www.w3.org/2000/svg" xmlns:xlink="http://www.w3.org/1999/xlink" xmlns:sketch="http://www.bohemiancoding.com/sketch/ns">
    <!-- Generator: Sketch 3.3.3 (12081) - http://www.bohemiancoding.com/sketch -->
    <title>gfw-climate-logo</title>
    <desc>Created with Sketch.</desc>
    <defs></defs>
    <g id="Page-1" stroke="none" stroke-width="1" fill="none" fill-rule="evenodd" sketch:type="MSPage">
        <g id="Country-profile" sketch:type="MSArtboardGroup" transform="translate(-24.000000, -35.000000)">
            <g id="Nav" sketch:type="MSLayerGroup" transform="translate(0.000000, 35.000000)">
                <g id="gfw-climate-logo" transform="translate(24.000000, 0.620690)" sketch:type="MSShapeGroup">
                    <rect id="Rectangle-1-Copy-3" fill="#0098CF" x="0" y="0" width="90" height="89.3793103"></rect>
                    <path d="M20.5718543,14.1670891 C20.4131137,13.2059456 19.9765769,11.7295498 18.4486983,11.7295498 C15.9286908,11.7295498 15.9286908,14.9696935 15.9286908,16.7631676 C15.9286908,19.6465983 16.1271166,20.538381 16.6033385,21.2914419 C17.00019,21.9057811 17.8434997,22.2426767 18.5479112,22.2426767 C18.7165731,22.2426767 19.7880724,22.2823115 20.8198865,21.4103462 L20.8198865,18.9232634 L18.5875964,18.9232634 L18.5875964,16.5749024 L23.6176902,16.5749024 L23.6176902,22.8471072 C22.377529,23.7587073 21.0282336,24.6703074 18.3891706,24.6703074 C13.6269516,24.6703074 13.0316742,20.3302983 13.0316742,17.238785 C13.0316742,13.8103761 13.5078961,12.2745281 14.6190805,10.9863976 C16.0675888,9.30191918 17.8434997,9.30191918 18.607439,9.30191918 C22.6255613,9.30191918 23.0918619,12.0069933 23.3597367,13.5626587 L20.5718543,14.1670891 Z M28.5345833,9.30191918 L28.5345833,21.9528928 L34.2037062,21.9528928 L34.2037062,24.3249503 L25.7348934,24.3249503 L25.7348934,9.30191918 L28.5345833,9.30191918 Z M45.1425894,17.1991503 C45.1425894,19.0619852 45.1224256,24.6703074 39.6681069,24.6703074 C35.615175,24.6703074 34.2037062,21.6382463 34.2037062,16.8028024 C34.2037062,12.9780456 35.3127174,9.30191918 39.647943,9.30191918 C44.4771827,9.30191918 45.1425894,13.6617456 45.1425894,17.1991503 Z M39.6882707,22.2823115 C40.7166265,22.2823115 41.3618694,21.6382463 41.6542451,21.0833593 C41.9768665,20.4591114 42.2087507,19.8348635 42.2087507,16.4857241 C42.2087507,15.1579588 42.2087507,11.7295498 39.6882707,11.7295498 C38.8413894,11.7295498 37.9844262,12.1655325 37.5206579,13.4932978 C37.2081184,14.4148065 37.1476269,16.4857241 37.1476269,17.5063198 C37.1476269,18.8539026 37.1677907,22.2823115 39.6882707,22.2823115 Z M51.3368758,9.30191918 C54.682358,9.30191918 55.6440563,11.2335947 55.6440563,13.0151401 C55.6440563,14.336286 55.1529763,15.7074754 53.2602723,16.3480311 L53.2602723,16.3980745 C55.5315171,16.8184391 56.2579062,18.3697848 56.2579062,20.1513301 C56.2579062,21.9528928 55.3678238,24.3249503 51.6540316,24.3249503 L46.9069254,24.3249503 L46.9069254,9.30191918 L51.3368758,9.30191918 Z M49.740866,15.3671803 L50.5491017,15.3671803 C51.1015667,15.3671803 52.8101157,15.3671803 52.8101157,13.5456002 C52.8101157,11.7340288 51.14249,11.7340288 50.7025642,11.7340288 L49.740866,11.7340288 L49.740866,15.3671803 L49.740866,15.3671803 Z M49.740866,21.8928407 L50.7025642,21.8928407 C51.7461091,21.8928407 53.280734,21.7427105 53.280734,19.8110349 C53.280734,17.8193073 51.4596458,17.7992899 50.7025642,17.7992899 L49.740866,17.7992899 L49.740866,21.8928407 Z M63.8898021,9.30191918 L68.0789574,24.3249503 L65.1772494,24.3249503 L64.493912,21.3423632 L60.2255292,21.3423632 L59.5223849,24.3249503 L56.6107734,24.3249503 L60.8395425,9.30191918 L63.8898021,9.30191918 Z M63.9195125,18.8902362 L62.3844792,12.0943414 L62.3448654,12.0943414 L60.7999287,18.8902362 L63.9195125,18.8902362 Z M72.1136825,9.30191918 L72.1136825,21.9528928 L77.7828054,21.9528928 L77.7828054,24.3249503 L69.3139926,24.3249503 L69.3139926,9.30191918 L72.1136825,9.30191918 Z" id="Fill-2-Copy-3" fill="#FFFFFF"></path>
                    <path d="M21.5480072,29.5234826 L21.5480072,31.8867662 L16.284036,31.8867662 L16.284036,35.6229117 L20.4971956,35.6229117 L20.4971956,37.9960015 L16.284036,37.9960015 L16.284036,44.5465138 L13.438914,44.5465138 L13.438914,29.5234826 L21.5480072,29.5234826 Z M33.7116469,37.4164072 C33.7116469,39.2901273 33.6919005,44.8918708 28.2418867,44.8918708 C24.1839959,44.8918708 22.7819996,41.8628518 22.7819996,37.018363 C22.7819996,33.202964 23.8877995,29.5234826 28.212267,29.5234826 C33.0402684,29.5234826 33.7116469,33.8825517 33.7116469,37.4164072 Z M28.2616331,42.5036058 C29.2884473,42.5036058 29.9400794,41.8628518 30.2362758,41.2997649 C30.5423454,40.6784277 30.7793025,40.0570904 30.7793025,36.7076944 C30.7793025,35.3776444 30.7793025,31.9505812 28.2616331,31.9505812 C27.42241,31.9505812 26.5535672,32.3874589 26.0993994,33.7175089 C25.7834565,34.630098 25.714344,36.7076944 25.714344,37.7270758 C25.714344,39.0765426 25.7439637,42.5036058 28.2616331,42.5036058 Z M40.8975491,29.5234826 C41.0073431,29.5234826 42.1751521,29.5430949 43.1533168,29.7294119 C44.550695,30.0235966 46.0977923,31.2787845 46.0977923,33.7989667 C46.0977923,36.7996504 43.7022868,37.5547245 42.8139535,37.8096845 L42.8139535,37.8489091 C43.1932419,37.9763892 43.5326052,38.0842569 44.0616126,38.6432078 C44.3610508,38.9570048 45.1495714,40.2612235 45.2992905,40.5357959 L47.2855638,44.5465138 L44.0416501,44.5465138 L41.7259948,40.2219989 C40.6879424,38.2901862 40.268729,38.2901862 39.1408451,38.2901862 L38.6916878,38.2901862 L38.6916878,44.5465138 L35.8270625,44.5465138 L35.8270625,29.5234826 L40.8975491,29.5234826 Z M38.6916878,36.0053518 L40.1389724,36.0053518 C41.7958637,36.0053518 43.1732793,35.6719425 43.1732793,33.9264467 C43.1732793,31.9750216 41.2868188,31.9750216 40.3885042,31.9750216 L38.6916878,31.9750216 L38.6916878,36.0053518 Z M56.0297528,29.5234826 L56.0297528,31.8867662 L51.0046769,31.8867662 L51.0046769,35.4562071 L55.5469514,35.4562071 L55.5469514,37.8292968 L51.0046769,37.8292968 L51.0046769,42.173424 L56.2760801,42.173424 L56.2760801,44.5465138 L48.1669869,44.5465138 L48.1669869,29.5234826 L56.0297528,29.5234826 Z M64.3538141,34.1155531 C64.2407793,33.4262571 64.0249856,31.8534972 62.4733265,31.8534972 C61.6820831,31.8534972 60.8600121,32.3097918 60.8600121,33.300048 C60.8600121,34.5330141 62.2061534,35.1349345 63.6550537,35.7756885 C66.2959569,36.9601126 67.7345813,38.1639535 67.7345813,40.4260094 C67.7345813,42.7366073 66.1418186,44.8918708 62.6480166,44.8918708 C57.8800045,44.8918708 57.6231073,41.3871405 57.5100725,39.8435058 L60.5311837,39.5813791 C60.6339425,40.9114291 60.9216674,42.4647722 62.7816032,42.4647722 C64.2613311,42.4647722 64.816229,41.4453908 64.816229,40.6395941 C64.816229,39.2415853 63.4598118,38.6396649 61.5587725,37.8338681 C59.852975,37.1057386 57.9313839,36.0863572 57.9313839,33.5524662 C57.9313839,31.4748699 59.4316636,29.5234826 62.7404996,29.5234826 C66.840579,29.5234826 67.210511,32.4360009 67.302994,33.9505104 L64.3538141,34.1155531 Z M77.7828054,29.5234826 L77.7828054,31.8867662 L74.3417793,31.8867662 L74.3417793,44.5465138 L71.5281767,44.5465138 L71.5281767,31.8867662 L68.0871506,31.8867662 L68.0871506,29.5234826 L77.7828054,29.5234826 Z" id="Fill-8-Copy-3" fill="#333333"></path>
                    <path d="M16.6120374,50.2703897 L18.4655444,61.2073436 L18.5159115,61.2073436 L21.1450709,50.2703897 L24.8017179,50.2703897 L27.3603634,61.1670972 L27.4107304,61.1670972 L29.2843843,50.2703897 L32.4776545,50.2703897 L29.2138704,66.7311593 L25.8090586,66.7311593 L22.9482109,54.68743 L22.8978438,54.68743 L20.0269226,66.7311593 L16.6120374,66.7311593 L13.438914,50.2703897 L16.6120374,50.2703897 Z M40.1810974,50.2703897 L44.8175789,66.7311593 L41.599197,66.7311593 L40.8448887,63.4611409 L36.1178903,63.4611409 L35.3434671,66.7311593 L32.1250852,66.7311593 L36.8017964,50.2703897 L40.1810974,50.2703897 Z M40.2012123,60.774695 L38.5115618,53.3291146 L38.4713321,53.3291146 L36.7615667,60.774695 L40.2012123,60.774695 Z M54.5132337,50.2703897 L54.5132337,52.8662813 L50.7636345,52.8662813 L50.7636345,66.7311593 L47.6857549,66.7311593 L47.6857549,52.8662813 L43.9361557,52.8662813 L43.9361557,50.2703897 L54.5132337,50.2703897 Z M61.8905235,55.1762918 C61.752261,54.2412421 61.485612,52.4009849 59.8955937,52.4009849 C57.6537667,52.4009849 57.6537667,55.4946065 57.6537667,58.0112827 C57.6537667,61.1049043 57.8315327,61.9404806 58.2068166,62.7362675 C58.522845,63.4027391 59.1944055,63.9001059 59.9153455,63.9001059 C61.6436262,63.9001059 61.9497788,61.8509546 62.107793,60.4682748 L65.0903118,61.4431138 C64.5570137,65.4916797 62.3151867,66.5560447 59.9844767,66.5560447 C55.0761595,66.5560447 54.5132337,61.5127451 54.5132337,58.2201767 C54.5132337,55.0171344 54.7403792,49.745046 59.9350973,49.745046 C63.8854532,49.745046 64.5965173,52.6795103 64.9619252,54.4700309 L61.8905235,55.1762918 Z M70.2476314,50.2703897 L70.2476314,56.7802418 L74.7409014,56.7802418 L74.7409014,50.2703897 L77.7828054,50.2703897 L77.7828054,66.7311593 L74.7409014,66.7311593 L74.7409014,59.4465645 L70.2476314,59.4465645 L70.2476314,66.7311593 L67.2057274,66.7311593 L67.2057274,50.2703897 L70.2476314,50.2703897 Z" id="Fill-14-Copy-3" fill="#FFFFFF"></path>
                    <path d="M20.437553,74.3095062 L18.2661376,74.7870036 C18.1006956,73.5188051 17.6302269,72.8847153 16.8547175,72.8847153 C16.5031533,72.8847153 16.2071716,72.996387 15.9667637,73.2197337 C15.7263558,73.4430804 15.5479913,73.779379 15.4316649,74.2286397 C15.3153385,74.6779003 15.2571762,75.521214 15.2571762,76.7586061 C15.2571762,77.9292509 15.306291,78.7699974 15.4045222,79.2808709 C15.5027534,79.7917444 15.6837029,80.1781027 15.9473761,80.4399575 C16.2110493,80.7018122 16.5186634,80.8327377 16.8702277,80.8327377 C17.7491383,80.8327377 18.2635518,80.0420508 18.4134836,78.4606535 L20.5306137,79.1460934 C20.1997297,81.513055 18.9925382,82.6965181 16.9090029,82.6965181 C15.6164873,82.6965181 14.6471151,82.2215926 14.0008573,81.2717273 C13.3545994,80.321862 13.0314754,78.8970854 13.0314754,76.9973548 C13.0314754,75.5751241 13.1465075,74.4545565 13.3765753,73.6356186 C13.6066431,72.8166807 14.0228269,72.176173 14.6251392,71.7140764 C15.2274515,71.2519798 15.9809768,71.0209349 16.8857378,71.0209349 C17.8680497,71.0209349 18.6500099,71.2750843 19.231642,71.7833905 C19.813274,72.2916968 20.2152403,73.133727 20.437553,74.3095062 L20.437553,74.3095062 Z M23.6390148,71.2134742 L25.8026752,71.2134742 L25.8026752,80.7095125 L30.1222409,80.7095125 L30.1222409,82.5039788 L23.6390148,82.5039788 L23.6390148,71.2134742 Z M33.0988061,71.2134742 L35.2779766,71.2134742 L35.2779766,82.5039788 L33.0988061,82.5039788 L33.0988061,71.2134742 Z M39.0610675,71.2134742 L42.22513,71.2134742 L44.0940983,78.9843604 L46.0716373,71.2134742 L49.2046796,71.2134742 L49.2046796,82.5039788 L47.2504057,82.5039788 L47.2504057,73.5316474 L45.0945004,82.5039788 L43.0083905,82.5039788 L41.0153414,73.5316474 L41.0153414,82.5039788 L39.0610675,82.5039788 L39.0610675,71.2134742 Z M55.0816354,71.2134742 L57.423662,71.2134742 L60.649765,82.5039788 L58.408554,82.5039788 L57.8812103,80.2705229 L54.5930669,80.2705229 L54.0579681,82.5039788 L51.8245122,82.5039788 L55.0816354,71.2134742 Z M57.4391721,78.4221456 L56.2526487,73.3083018 L55.0351051,78.4221456 L57.4391721,78.4221456 Z M62.059809,71.2134742 L69.4426215,71.2134742 L69.4426215,72.9771342 L66.8214129,72.9771342 L66.8214129,82.5039788 L64.6887727,82.5039788 L64.6887727,72.9771342 L62.059809,72.9771342 L62.059809,71.2134742 Z M72.3571462,71.2134742 L78.3130286,71.2134742 L78.3130286,73.0156421 L74.5052965,73.0156421 L74.5052965,75.6726844 L77.956296,75.6726844 L77.956296,77.4517475 L74.5052965,77.4517475 L74.5052965,80.7326172 L78.51466,80.7326172 L78.51466,82.5039788 L72.3571462,82.5039788 L72.3571462,71.2134742 Z" id="CLIMATE" fill="#333333"></path>
                </g>
            </g>
        </g>
    </g>
</svg>