<?xml version="1.0" encoding="utf-8"?>
<!-- Generated by IcoMoon.io -->
<!DOCTYPE svg PUBLIC "-//W3C//DTD SVG 1.1//EN" "http://www.w3.org/Graphics/SVG/1.1/DTD/svg11.dtd">
<svg version="1.1" xmlns="http://www.w3.org/2000/svg" xmlns:xlink="http://www.w3.org/1999/xlink" width="16" height="16" viewBox="0 0 16 16">
<path fill="#000000" d="M3.945 9.783c-0.784 0-1.371-0.606-1.371-2.096 0-1.523 0.619-2.104 1.395-2.104 0.405 0 0.751 0.139 1.073 0.409l0.562-0.647c-0.462-0.385-0.95-0.598-1.701-0.598-1.379 0-2.477 1.040-2.477 2.94 0 1.924 1.016 2.964 2.469 2.964 0.817 0 1.404-0.327 1.784-0.688l-0.52-0.655c-0.297 0.246-0.652 0.475-1.214 0.475v0zM10.98 7.695c0-1.908-0.958-2.948-2.469-2.948s-2.469 1.081-2.469 2.956c0 1.908 0.958 2.948 2.469 2.948s2.469-1.081 2.469-2.956v0zM9.833 7.695c0 1.539-0.487 2.129-1.321 2.129-0.809 0-1.321-0.581-1.321-2.121s0.495-2.129 1.321-2.129c0.826 0 1.321 0.581 1.321 2.121v0z"></path>
<path fill="#000000" d="M14.44 9.806c0-0.614-0.454-1.087-1.238-1.087-0.528 0-0.937 0.225-1.243 0.619l0.448 0.349c0.233-0.276 0.437-0.4 0.732-0.4 0.329 0 0.551 0.203 0.551 0.569 0 0.518-0.312 0.906-1.624 2.19v0.529h2.379l0.079-0.569h-1.635c1.186-1.075 1.55-1.582 1.55-2.201v0z"></path>
</svg>
