<?xml version="1.0" encoding="utf-8"?>
<!-- Generated by IcoMoon.io -->
<!DOCTYPE svg PUBLIC "-//W3C//DTD SVG 1.1//EN" "http://www.w3.org/Graphics/SVG/1.1/DTD/svg11.dtd">
<svg version="1.1" xmlns="http://www.w3.org/2000/svg" xmlns:xlink="http://www.w3.org/1999/xlink" width="16" height="16" viewBox="0 0 16 16">
<path fill="#000000" d="M4.571 5.607v6.795c0 0.036 0.009 0.071 0.045 0.107 0.027 0.018 0.063 0.036 0.098 0.036h0.286c0.036 0 0.071-0.018 0.098-0.036 0.027-0.036 0.045-0.071 0.045-0.107v-7.259c0-0.161-0.009-0.295-0.027-0.402s-0.098-0.17-0.259-0.17c-0.161 0-0.339 0.063-0.545 0.17-0.214 0.107-0.313 0.241-0.313 0.402 0 0.205 0.187 0.357 0.571 0.464v0zM5.795 9.634c0.054 0.054 0.125 0.080 0.205 0.080 0.045 0 0.098-0.009 0.152-0.036 0.804-0.357 1.5-0.536 2.071-0.536 0.214 0 0.42 0.036 0.634 0.089 0.205 0.062 0.375 0.125 0.518 0.196 0.134 0.071 0.295 0.143 0.482 0.196 0.179 0.062 0.366 0.089 0.554 0.089 0.455 0 1-0.17 1.643-0.527 0.080-0.036 0.143-0.080 0.179-0.125 0.036-0.036 0.054-0.098 0.054-0.17v-3.464c0-0.071-0.036-0.143-0.089-0.196s-0.125-0.089-0.196-0.089c-0.036 0-0.116 0.036-0.241 0.089-0.125 0.062-0.259 0.125-0.393 0.196-0.143 0.071-0.304 0.143-0.491 0.196-0.196 0.062-0.366 0.089-0.527 0.089-0.152 0-0.286-0.027-0.393-0.080-0.375-0.161-0.705-0.286-0.982-0.366s-0.571-0.125-0.884-0.125c-0.554 0-1.188 0.179-1.884 0.536-0.179 0.089-0.295 0.152-0.348 0.187-0.098 0.071-0.143 0.161-0.143 0.25v3.313c0 0.080 0.027 0.152 0.080 0.205v0z"></path>
</svg>
