<?xml version="1.0" encoding="utf-8"?>
<!-- Generated by IcoMoon.io -->
<!DOCTYPE svg PUBLIC "-//W3C//DTD SVG 1.1//EN" "http://www.w3.org/Graphics/SVG/1.1/DTD/svg11.dtd">
<svg version="1.1" xmlns="http://www.w3.org/2000/svg" xmlns:xlink="http://www.w3.org/1999/xlink" width="16" height="16" viewBox="0 0 16 16">
<path fill="#000000" d="M6.571 10.774l0.714-1.060h-1.429l0.714 1.060zM5.48 6.514l1.1 1.809 1.089-1.8-1.097-1.951-1.091 1.943z"></path>
<path fill="#000000" d="M5.714 12h1.714v1.143h-1.714v-1.143z"></path>
<path fill="#000000" d="M3.714 4.571l-2.571 4.571h1.286l-1.286 2.286h5.143l-1.286-2.286h1.286l-2.571-4.571z"></path>
<path fill="#000000" d="M2.857 12h1.714v1.143h-1.714v-1.143z"></path>
<path fill="#000000" d="M12.286 4.571l-1.091 1.943 1.949 3.2h-1.571l0.751 1.714h2.534l-1.286-2.286h1.286l-2.571-4.571z"></path>
<path fill="#000000" d="M11.429 12h1.714v1.143h-1.714v-1.143z"></path>
<path fill="#000000" d="M9.429 4.571l-2.571 4.571h1.286l-1.286 2.286h5.143l-1.286-2.286h1.286l-2.571-4.571z"></path>
<path fill="#000000" d="M8.571 12h1.714v1.143h-1.714v-1.143z"></path>
</svg>
