<?xml version="1.0" encoding="utf-8"?>
<!-- Generated by IcoMoon.io -->
<!DOCTYPE svg PUBLIC "-//W3C//DTD SVG 1.1//EN" "http://www.w3.org/Graphics/SVG/1.1/DTD/svg11.dtd">
<svg version="1.1" xmlns="http://www.w3.org/2000/svg" xmlns:xlink="http://www.w3.org/1999/xlink" width="16" height="16" viewBox="0 0 16 16">
<path fill="#000000" d="M4.574 15.231c1.038 0.493 2.2 0.769 3.426 0.769s2.387-0.276 3.426-0.769c0.003-1.621 0.006-3.554-0.005-3.852-0.063-1.714-1.628-1.133-2.362-1.689-0.217-0.165-0.074-0.845 0-1.039s0.472-0.39 0.472-1.169c0-2.274-0.856-2.339-1.527-2.339-0.443 0-1.535 0.065-1.535 2.339 0 0.78 0.399 0.974 0.472 1.169s0.217 0.875 0 1.039c-0.733 0.557-2.299-0.025-2.362 1.689-0.011 0.298-0.009 2.23-0.005 3.852z"></path>
</svg>
