<svg style="position: absolute; width: 0; height: 0;" width="0" height="0" version="1.1" xmlns="http://www.w3.org/2000/svg" xmlns:xlink="http://www.w3.org/1999/xlink">
<defs>
<symbol id="icon-layer-carbon-emissions" viewBox="0 0 1024 1024">
	<title>layer-carbon-emissions</title>
	<path class="path1" d="M252.506 626.133c-50.202 0-87.727-38.777-87.727-134.161 0-97.475 39.636-134.681 89.308-134.681 25.895 0 48.091 8.912 68.7 26.204l35.937-41.399c-29.593-24.633-60.774-38.258-108.865-38.258-88.25 0-158.537 66.558-158.537 188.134 0 123.153 65.001 189.711 158.008 189.711 52.319 0 89.838-20.959 114.145-44.022l-33.291-41.925c-19.027 15.721-41.747 30.397-77.684 30.397v0zM702.752 492.497c0-122.107-61.303-188.659-158.008-188.659s-158.008 69.174-158.008 189.185c0 122.107 61.303 188.659 158.008 188.659s158.008-69.174 158.008-189.185v0zM629.296 492.497c0 98.52-31.181 136.252-84.552 136.252-51.789 0-84.552-37.206-84.552-135.732s31.71-136.252 84.552-136.252c52.848 0 84.552 37.206 84.552 135.732v0z"></path>
	<path class="path2" d="M924.141 627.574c0-39.27-29.064-69.537-79.2-69.537-33.788 0-59.944 14.41-79.566 39.634l28.704 22.336c14.898-17.655 27.973-25.581 46.869-25.581 21.072 0 35.239 12.969 35.239 36.388 0 33.149-19.981 58.003-103.906 140.152v33.87h152.231l5.084-36.388h-104.637c75.933-68.817 99.188-101.239 99.188-140.873v0z"></path>
</symbol>
<symbol id="icon-layer-conservation" viewBox="0 0 1024 1024">
	<title>layer-conservation</title>
	<path fill="#000000" class="path1" d="M512 329.143l-146.286 219.429h73.143l-73.143 109.714h292.571l-73.143-109.714h73.143l-146.286-219.429z"></path>
	<path fill="#000000" class="path2" d="M475.429 694.857h73.143v73.143h-73.143v-73.143z"></path>
	<path fill="#000000" class="path3" d="M219.429 219.429v146.286h36.571v-109.714h109.714v-36.571h-146.286z"></path>
	<path fill="#000000" class="path4" d="M658.286 219.429v36.571h109.714v109.714h36.571v-146.286h-146.286z"></path>
	<path fill="#000000" class="path5" d="M658.286 804.571v36.571h146.286v-146.286h-36.571v109.714h-109.714z"></path>
	<path fill="#000000" class="path6" d="M219.429 841.143h146.286v-36.571h-109.714v-109.714h-36.571v146.286z"></path>
</symbol>
<symbol id="icon-layer-forestchange" viewBox="0 0 1024 1024">
	<title>layer-forestchange</title>
	<path fill="#000000" class="path1" d="M603.429 256l-111.693 193.949 56.836 112.176v59.589h-29.765l49.744 73.143h199.45l-82.286-146.286h82.286l-164.571-292.571z"></path>
	<path fill="#000000" class="path2" d="M548.571 731.429h109.714v73.143h-109.714v-73.143z"></path>
	<path fill="#000000" class="path3" d="M365.714 365.714l-146.286 219.429h73.143l-73.143 109.714h292.571l-73.143-109.714h73.143l-146.286-219.429z"></path>
	<path fill="#000000" class="path4" d="M329.143 731.429h73.143v73.143h-73.143v-73.143z"></path>
</symbol>
<symbol id="icon-layer-forestcover" viewBox="0 0 1024 1024">
	<title>layer-forestcover</title>
	<path fill="#000000" class="path1" d="M420.571 689.554l45.714-67.84h-91.429l45.714 67.84zM350.72 416.914l70.4 115.749 69.669-115.2-70.217-124.891-69.851 124.343z"></path>
	<path fill="#000000" class="path2" d="M365.714 768h109.714v73.143h-109.714v-73.143z"></path>
	<path fill="#000000" class="path3" d="M237.714 292.571l-164.571 292.571h82.286l-82.286 146.286h329.143l-82.286-146.286h82.286l-164.571-292.571z"></path>
	<path fill="#000000" class="path4" d="M182.857 768h109.714v73.143h-109.714v-73.143z"></path>
	<path fill="#000000" class="path5" d="M786.286 292.571l-69.851 124.343 124.709 204.8h-100.571l48.091 109.714h162.194l-82.286-146.286h82.286l-164.571-292.571z"></path>
	<path fill="#000000" class="path6" d="M731.429 768h109.714v73.143h-109.714v-73.143z"></path>
	<path fill="#000000" class="path7" d="M603.429 292.571l-164.571 292.571h82.286l-82.286 146.286h329.143l-82.286-146.286h82.286l-164.571-292.571z"></path>
	<path fill="#000000" class="path8" d="M548.571 768h109.714v73.143h-109.714v-73.143z"></path>
</symbol>
<symbol id="icon-layer-forestuse" viewBox="0 0 1024 1024">
	<title>layer-forestuse</title>
	<path fill="#000000" class="path1" d="M420.571 256l-164.571 292.571h82.286l-82.286 146.286h288.216l-68.787-79.792v-64.234l70.634-62.23-125.491-232.602z"></path>
	<path fill="#000000" class="path2" d="M365.714 731.429h109.714v73.143h-109.714v-73.143z"></path>
	<path fill="#000000" class="path3" d="M552.51 608.629l109.206 104.514 180.18-184.894-51.719-51.723-131.891 130.011-57.867-60.35-47.909 62.442z"></path>
</symbol>
<symbol id="icon-layer-people" viewBox="0 0 1024 1024">
	<title>layer-people</title>
	<path fill="#000000" class="path1" d="M292.754 974.811c66.461 31.539 140.789 49.189 219.246 49.189s152.784-17.649 219.246-49.189c0.223-103.775 0.362-227.445-0.34-246.524-4.030-109.67-104.21-72.485-151.15-108.101-13.912-10.555-4.725-54.049 0-66.523s30.23-24.945 30.23-74.84c0-145.521-54.788-149.68-97.726-149.68-28.339 0-98.245 4.158-98.245 149.68 0 49.894 25.505 62.365 30.23 74.84s13.912 55.969 0 66.523c-46.939 35.617-147.12-1.569-151.15 108.101-0.702 19.079-0.563 142.749-0.34 246.524z"></path>
</symbol>
<symbol id="icon-layer-stories" viewBox="0 0 1024 1024">
	<title>layer-stories</title>
	<path fill="#000000" class="path1" d="M292.571 358.857v434.856c0 2.286 0.571 4.571 2.856 6.857 1.715 1.145 4.001 2.286 6.287 2.286h18.286c2.286 0 4.571-1.141 6.287-2.286 1.715-2.286 2.856-4.571 2.856-6.857v-464.571c0-10.284-0.571-18.856-1.715-25.713-1.141-6.857-6.283-10.858-16.571-10.858-10.284 0-21.712 4.001-34.856 10.858-13.714 6.857-20.001 15.429-20.001 25.713 0 13.144 11.999 22.857 36.571 29.714v0zM370.856 616.572c3.43 3.427 8.002 5.142 13.144 5.142 2.856 0 6.287-0.571 9.713-2.286 51.43-22.857 96-34.286 132.571-34.286 13.714 0 26.858 2.286 40.572 5.716 13.144 3.997 24.002 7.998 33.145 12.57 8.569 4.571 18.856 9.143 30.855 12.573 11.429 3.997 23.428 5.712 35.43 5.712 29.14 0 64-10.858 105.143-33.715 5.142-2.286 9.143-5.142 11.429-7.998 2.286-2.286 3.427-6.287 3.427-10.858v-221.714c0-4.571-2.286-9.143-5.712-12.57-3.43-3.43-8.002-5.716-12.573-5.716-2.286 0-7.428 2.286-15.429 5.716-7.998 3.997-16.571 7.998-25.143 12.57-9.143 4.571-19.427 9.143-31.426 12.573-12.573 3.997-23.431 5.712-33.715 5.712-9.713 0-18.286-1.715-25.143-5.142-24.002-10.288-45.144-18.286-62.859-23.428-17.712-5.146-36.571-8.002-56.569-8.002-35.43 0-76.003 11.429-120.572 34.286-11.429 5.716-18.856 9.713-22.287 11.999-6.287 4.571-9.143 10.288-9.143 16v212.001c0 5.142 1.715 9.713 5.142 13.144v0z"></path>
</symbol>
</defs>
</svg>
