<svg width="40" height="41" viewBox="0 0 40 41" xmlns="http://www.w3.org/2000/svg"><title>economy-wide-target</title><path d="M1.442 11L0 36.181h20.922l3.105-6.699H21.79l2.418-5.22V19.13l-5.805 5.61v-5.61l-6.291 5.61v-5.61l-6.06 5.61L4.686 11H1.442zm38.442-9.997C39.339-.16 37.075-.19 36.066.3c-1.01.49-7.367 2.752-7.367 2.752s-3.74-1.171-5.55-1.697c-1.81-.527-2.121.769-1.234 1.27.925.557 1.89 1.7 1.89 1.7l-4.643 1.708s-1.984-1.138-3.993-2.136c-2.008-.997-2.655.092-1.802 1.07.846 1.026 4.62 5.006 4.62 5.006l6.786-1.506s-.293 1.734-.542 2.655c-.248.92.315 2.522 1.52 1.149 1.25-1.365 4.082-5.241 4.082-5.241s6.783-2.86 8.04-3.45c1.258-.59 2.563-1.462 2.011-2.578zM24.79 27.483h2.237L23 36.172H40l-4.026-8.69h2.237L31.5 13l-6.71 14.483zM29.264 41h4.473v-4.828h-4.473V41z" fill="#6C94B5" fill-rule="evenodd"/></svg>