<svg width="45" height="39" viewBox="0 0 45 39" xmlns="http://www.w3.org/2000/svg"><title>land-use-excluded</title><path d="M14.174 28.94H19l-1.609-3.217-3.217 3.217zm-2.174 5v-2.826L9.174 33.94H12zM37.525 0l-.706.707-10.957 10.957L22.5 4.94l-5.5 11 1.527 3.057-3 3L14.5 19.94h2.502L9.5 4.94l-7.502 15h2.502l-4.5 9h7v1.585L.718 36.808l-.708.708 1.415 1.414.707-.708 36.1-36.1.709-.708L37.525 0zM30 19.94l-2.275-4.55-9 9L22 30.94h-2v3h5v-5h7l-4.5-9H30zm2.826-9.651L30 15.939l3 6h-2.5l4.5 9h-2v3h5v-5h7l-4.5-9H43L36.392 6.724l-3.566 3.566z" fill="#6C94B5" fill-rule="evenodd"/></svg>